<?xml version="1.0" encoding="iso-8859-1"?>
<!-- Generator: Adobe Illustrator 19.0.0, SVG Export Plug-In . SVG Version: 6.00 Build 0)  -->
<svg version="1.1" id="Layer_1" xmlns="http://www.w3.org/2000/svg" xmlns:xlink="http://www.w3.org/1999/xlink" x="0px" y="0px"
	 viewBox="0 0 369.674 369.674" style="enable-background:new 0 0 369.674 369.674;" xml:space="preserve">
<g>
	<g>
		<path d="M297.347,38.328h-45.251l-0.495-2.473C246.655,16.073,226.874,0,205.855,0h-43.273c-21.018,0-40.8,14.837-45.746,35.855
			l-0.55,2.473h-40.25c-17.309,0-37.091,13.6-37.091,33.381v23.491c0,7.418,4.945,12.364,12.364,12.364h4.611l17.643,217.6
			c2.473,24.727,23.491,44.509,48.219,44.509H255.31c24.727,0,45.746-19.782,45.746-44.509l11.762-217.6h5.547
			c7.419,0,12.364-6.182,12.364-12.364V71.71C330.729,53.164,315.892,38.328,297.347,38.328z M162.583,24.726h43.273
			c7.41,0,15.722,6.346,19.513,13.602h-82.688C145.954,31.071,155.172,24.726,162.583,24.726z M277.563,322.692
			c0,11.126-11.127,21.018-22.255,21.018H121.782c-12.364,0-22.255-9.89-23.491-21.018L80.848,107.565h208.344L277.563,322.692z
			 M306.001,82.837h-3.709c-1.267-0.253-2.532-0.234-3.746,0H63.674L63.673,71.71c0-3.709,6.182-8.654,12.364-8.654h163.318
			c1.605,0.304,3.251,0.312,4.819,0h53.173c4.945,0,8.655,3.708,8.655,8.654V82.837z"/>
	</g>
</g>
<g>
	<g>
		<path d="M184.837,178.036c-7.418,0-12.364,4.945-12.364,12.364v132.291c0,7.418,4.945,12.364,12.364,12.364
			c6.182,0,12.364-6.182,12.364-12.364V190.4C197.201,182.982,192.255,178.036,184.837,178.036z"/>
	</g>
</g>
<g>
	<g>
		<path d="M184.837,116.218c-7.418,0-12.364,4.945-12.364,12.364v27.199c0,7.418,4.945,12.364,12.364,12.364
			c6.182,0,12.364-4.944,12.364-12.364v-27.2C197.201,121.164,192.255,116.218,184.837,116.218z"/>
	</g>
</g>
<g>
	<g>
		<path d="M139.091,129.818c0-7.418-6.182-12.364-12.364-12.364c-7.418,0-12.364,4.945-12.364,12.364l8.655,192.873
			c0,7.418,6.181,12.364,12.364,12.364c7.418,0,12.364-6.182,12.364-12.364L139.091,129.818z"/>
	</g>
</g>
<g>
	<g>
		<path d="M244.183,194.109c-6.182,0-12.364,4.945-12.364,12.364l-4.945,116.218c0,6.182,4.946,12.364,12.364,12.364
			c6.182,0,12.364-4.944,12.364-12.364l4.945-116.218C256.546,200.29,251.601,194.109,244.183,194.109z"/>
	</g>
</g>
<g>
	<g>
		<path d="M247.892,117.455c-6.182-1.236-12.364,3.709-12.364,11.128l-2.473,40.8c0,7.418,4.945,13.6,12.364,13.6
			c6.182,0,12.364-4.945,11.128-12.364l2.473-40.8C260.256,123.636,255.31,117.455,247.892,117.455z"/>
	</g>
</g>
<g>
</g>
<g>
</g>
<g>
</g>
<g>
</g>
<g>
</g>
<g>
</g>
<g>
</g>
<g>
</g>
<g>
</g>
<g>
</g>
<g>
</g>
<g>
</g>
<g>
</g>
<g>
</g>
<g>
</g>
</svg>
